<svg id="Group_2" data-name="Group 2" xmlns="http://www.w3.org/2000/svg" width="24.04" height="24.04" viewBox="0 0 24.04 24.04">
  <path id="Path_9" data-name="Path 9" d="M0,0H24.04V24.04H0Z" fill="rgba(0,0,0,0)"/>
  <path id="Path_10" data-name="Path 10" d="M17.871,6.028H16.387A3.88,3.88,0,0,0,12.678,2a3.88,3.88,0,0,0-3.71,4.028H7.484A1.545,1.545,0,0,0,6.007,7.639L6,17.306a1.551,1.551,0,0,0,1.484,1.611H17.871a1.551,1.551,0,0,0,1.484-1.611V7.639A1.551,1.551,0,0,0,17.871,6.028ZM12.678,3.611A2.329,2.329,0,0,1,14.9,6.028H10.452A2.329,2.329,0,0,1,12.678,3.611Zm0,8.056a3.88,3.88,0,0,1-3.71-4.028h1.484a2.329,2.329,0,0,0,2.226,2.417A2.329,2.329,0,0,0,14.9,7.639h1.484A3.88,3.88,0,0,1,12.678,11.667Z" transform="translate(-0.658 -0.219)" fill="#fff"/>
</svg>
