<svg id="circle_button" data-name="circle button" xmlns="http://www.w3.org/2000/svg" width="35" height="35" viewBox="0 0 35 35">
  <g id="Path_25" data-name="Path 25" fill="#fff">
    <path d="M17.5,0A17.5,17.5,0,1,1,0,17.5,17.5,17.5,0,0,1,17.5,0Z" stroke="none"/>
    <path d="M 17.5 1 C 13.09268951416016 1 8.949169158935547 2.716300964355469 5.832740783691406 5.832740783691406 C 2.716300964355469 8.949169158935547 1 13.09268951416016 1 17.5 C 1 21.90731048583984 2.716300964355469 26.05081939697266 5.832740783691406 29.16725921630859 C 8.949169158935547 32.28369903564453 13.09268951416016 34 17.5 34 C 21.90731048583984 34 26.05081939697266 32.28369903564453 29.16725921630859 29.16725921630859 C 32.28369903564453 26.05081939697266 34 21.90731048583984 34 17.5 C 34 13.09268951416016 32.28369903564453 8.949169158935547 29.16725921630859 5.832740783691406 C 26.05081939697266 2.716300964355469 21.90731048583984 1 17.5 1 M 17.5 0 C 27.16497993469238 0 35 7.835010528564453 35 17.5 C 35 27.16497993469238 27.16497993469238 35 17.5 35 C 7.835010528564453 35 0 27.16497993469238 0 17.5 C 0 7.835010528564453 7.835010528564453 0 17.5 0 Z" stroke="none" fill="rgba(0,0,0,0.13)"/>
  </g>
</svg>
