<svg id="Group_10" data-name="Group 10" xmlns="http://www.w3.org/2000/svg" width="23.701" height="23.701" viewBox="0 0 23.701 23.701">
  <path id="Path_16" data-name="Path 16" d="M23.7,11.851A11.851,11.851,0,1,0,10,23.557V15.276H6.99V11.851H10V9.24c0-2.97,1.769-4.611,4.476-4.611a18.224,18.224,0,0,1,2.653.231V7.777H15.634A1.713,1.713,0,0,0,13.7,9.628v2.223h3.287l-.525,3.426H13.7v8.281A11.854,11.854,0,0,0,23.7,11.851Z" fill="#fff"/>
  <path id="Path_17" data-name="Path 17" d="M311.474,210.647l.525-3.426h-3.287V205a1.713,1.713,0,0,1,1.931-1.851h1.494v-2.916a18.223,18.223,0,0,0-2.653-.231c-2.707,0-4.476,1.641-4.476,4.611v2.611H302v3.426h3.009v8.281a11.976,11.976,0,0,0,3.7,0v-8.281Z" transform="translate(-295.01 -195.371)" fill="#1c7c54"/>
</svg>
