<svg xmlns="http://www.w3.org/2000/svg" width="7.616" height="7.616" viewBox="0 0 7.616 7.616">
  <path id="Path_19" data-name="Path 19" d="M10.03,10.616a.582.582,0,0,1-.414-.172L8.235,9.064A.586.586,0,0,1,7.1,8.858V7.687A.587.587,0,0,1,7.687,7.1H8.858a.586.586,0,0,1,.205,1.134l1.381,1.381a.586.586,0,0,1-.414,1Zm-6.444,0a.586.586,0,0,1-.414-1L4.552,8.235A.586.586,0,0,1,4.758,7.1H5.929a.587.587,0,0,1,.586.586V8.858a.586.586,0,0,1-1.134.205L4,10.444A.582.582,0,0,1,3.586,10.616Zm4.1-4.1A.587.587,0,0,1,7.1,5.929V4.758a.586.586,0,0,1,1.134-.205L9.616,3.172A.586.586,0,1,1,10.444,4L9.064,5.381a.586.586,0,0,1-.205,1.134Zm-2.929,0a.586.586,0,0,1-.205-1.134L3.172,4A.586.586,0,1,1,4,3.172L5.381,4.552a.586.586,0,0,1,1.134.205V5.929a.587.587,0,0,1-.586.586Z" transform="translate(-3 -3)" fill="#fff"/>
</svg>
