<svg id="Group_45" data-name="Group 45" xmlns="http://www.w3.org/2000/svg" width="52" height="52" viewBox="0 0 52 52">
  <path id="Path_38" data-name="Path 38" d="M0,0H52V52H0Z" fill="none"/>
  <path id="Path_39" data-name="Path 39" d="M9.261,50.833h4.333V46.5H9.261ZM20.094,27a6.473,6.473,0,0,0,6.478-6.5l.022-13a6.5,6.5,0,0,0-13,0v13A6.491,6.491,0,0,0,20.094,27ZM17.928,50.833h4.333V46.5H17.928Zm8.667,0h4.333V46.5H26.594ZM33.268,20.5a1.8,1.8,0,0,0-1.8,1.538A11.361,11.361,0,0,1,20.094,31.55,11.341,11.341,0,0,1,8.719,22.038a1.817,1.817,0,0,0-1.8-1.538,1.857,1.857,0,0,0-1.842,2.1A15.325,15.325,0,0,0,17.928,35.06V40a2.167,2.167,0,0,0,4.333,0V35.06A15.324,15.324,0,0,0,35.109,22.6a1.857,1.857,0,0,0-1.842-2.1Z" transform="translate(5.906 1.167)" fill="#b1cf5f"/>
</svg>
