<svg id="Group_27" data-name="Group 27" xmlns="http://www.w3.org/2000/svg" width="12.038" height="15.477" viewBox="0 0 12.038 15.477">
  <path id="Path_26" data-name="Path 26" d="M13.6,3a.86.86,0,0,1,.86.86h1.72a.86.86,0,0,1,0,1.72H5.86a.86.86,0,1,1,0-1.72h1.72A.86.86,0,0,1,8.439,3Z" transform="translate(-5 -3)" fill="rgba(0,0,0,0.3)"/>
  <path id="Path_27" data-name="Path 27" d="M6,7H16.318V17.318a1.72,1.72,0,0,1-1.72,1.72H7.72A1.72,1.72,0,0,1,6,17.318ZM9.009,8.72a.43.43,0,0,0-.43.43v7.738a.43.43,0,1,0,.86,0V9.15A.43.43,0,0,0,9.009,8.72Zm4.3,0a.43.43,0,0,0-.43.43v7.738a.43.43,0,1,0,.86,0V9.15A.43.43,0,0,0,13.309,8.72Z" transform="translate(-5.14 -3.561)" fill="rgba(0,0,0,0.3)" fill-rule="evenodd"/>
</svg>
