<svg xmlns="http://www.w3.org/2000/svg" width="16.264" height="14.231" viewBox="0 0 16.264 14.231">
  <path id="Path_36" data-name="Path 36" d="M137.826,204.325v-7.581h-3.388v7.581a.479.479,0,0,0,.191.408.79.79,0,0,0,.487.143h2.033a.79.79,0,0,0,.487-.143A.479.479,0,0,0,137.826,204.325ZM133,195.388h2.065l-1.334-1.7a.906.906,0,0,0-.731-.328,1.017,1.017,0,1,0,0,2.033Zm7.285-1.017a1.012,1.012,0,0,0-1.017-1.017.906.906,0,0,0-.731.328l-1.324,1.7h2.054a1.012,1.012,0,0,0,1.017-1.017Zm3.981,2.711v3.388a.326.326,0,0,1-.339.339h-1.017v4.4a1.012,1.012,0,0,1-1.017,1.017h-11.52a1.012,1.012,0,0,1-1.017-1.017v-4.4h-1.017a.326.326,0,0,1-.339-.339v-3.388a.326.326,0,0,1,.339-.339H133A2.372,2.372,0,1,1,133,192a2.145,2.145,0,0,1,1.779.815l1.355,1.747,1.355-1.747a2.145,2.145,0,0,1,1.779-.815,2.372,2.372,0,1,1,0,4.744h4.659a.326.326,0,0,1,.339.339Z" transform="translate(-128 -192)" fill="#fff"/>
</svg>
