<svg id="Group_2" data-name="Group 2" xmlns="http://www.w3.org/2000/svg" width="27" height="27" viewBox="0 0 27 27">
  <path id="Path_9" data-name="Path 9" d="M0,0H27V27H0Z" fill="none"/>
  <path id="Path_10" data-name="Path 10" d="M19.333,6.524H17.667A4.358,4.358,0,0,0,13.5,2,4.358,4.358,0,0,0,9.333,6.524H7.667a1.735,1.735,0,0,0-1.658,1.81L6,19.19A1.742,1.742,0,0,0,7.667,21H19.333A1.742,1.742,0,0,0,21,19.19V8.333A1.742,1.742,0,0,0,19.333,6.524ZM13.5,3.81A2.616,2.616,0,0,1,16,6.524H11A2.616,2.616,0,0,1,13.5,3.81Zm0,9.048A4.358,4.358,0,0,1,9.333,8.333H11a2.616,2.616,0,0,0,2.5,2.714A2.616,2.616,0,0,0,16,8.333h1.667A4.358,4.358,0,0,1,13.5,12.857Z" transform="translate(0)" fill="#def4c6"/>
</svg>
