<svg xmlns="http://www.w3.org/2000/svg" width="14.021" height="12.347" viewBox="0 0 14.021 12.347">
  <g id="Group_32" data-name="Group 32" transform="translate(-1.78 -3)">
    <path id="Path_28" data-name="Path 28" d="M14.155,9H12.838a.946.946,0,0,1,0,.137,6.1,6.1,0,0,1-.542,1.537A14.522,14.522,0,0,1,9.785,14.1l-.995.94-.967-.953a14.289,14.289,0,0,1-2.517-3.43,6.043,6.043,0,0,1-.542-1.543A.857.857,0,0,1,4.743,9H3.426L1.78,17.232H15.8Z" transform="translate(0 -1.884)" fill="#fff"/>
    <path id="Path_29" data-name="Path 29" d="M7,6.43a3.389,3.389,0,0,0,.075.686,5.57,5.57,0,0,0,.487,1.372,13.836,13.836,0,0,0,2.38,3.231l.487.48.487-.48A13.836,13.836,0,0,0,13.3,8.488a5.57,5.57,0,0,0,.487-1.372,3.389,3.389,0,0,0,.075-.686A3.43,3.43,0,1,0,7,6.43Zm4.116.686H9.744V5.744h1.372Z" transform="translate(-1.639 0)" fill="#fff"/>
  </g>
</svg>
