<svg id="Group_13" data-name="Group 13" xmlns="http://www.w3.org/2000/svg" width="9" height="9" viewBox="0 0 9 9">
  <rect id="Rectangle_12" data-name="Rectangle 12" width="9" height="9" fill="none"/>
  <path id="Path_18" data-name="Path 18" d="M29.793,40H25.448a.47.47,0,0,0-.483.456v.456h-.483a.47.47,0,0,0-.483.456v.679s0,0,0,0,0,0,0,0v2.5a.47.47,0,0,0,.483.456h4.344a.47.47,0,0,0,.483-.456V44.1h.483a.47.47,0,0,0,.483-.456V40.456A.47.47,0,0,0,29.793,40Zm-.965,1.368v.456H24.483v-.456Zm.965,2.279H29.31V41.368a.47.47,0,0,0-.483-.456H25.448v-.456h4.344Z" transform="translate(-23.204 -38.54)" fill="#fff"/>
</svg>
