<svg id="Layer_2" data-name="Layer 2" xmlns="http://www.w3.org/2000/svg" width="44" height="44" viewBox="0 0 44 44">
  <g id="file-text">
    <rect id="Rectangle_31" data-name="Rectangle 31" width="44" height="44" fill="#b1cf5f" opacity="0"/>
    <path id="Path_37" data-name="Path 37" d="M33.194,11.886,24.959,2.612A1.855,1.855,0,0,0,23.586,2H8.748A4.693,4.693,0,0,0,4,6.637V34.458A4.692,4.692,0,0,0,8.748,39.1h20.18a4.692,4.692,0,0,0,4.748-4.637V13.129a1.855,1.855,0,0,0-.482-1.243Zm-19.92,8.662h5.564a1.855,1.855,0,0,1,0,3.709H13.274a1.855,1.855,0,1,1,0-3.709ZM24.4,31.676H13.274a1.855,1.855,0,0,1,0-3.709H24.4a1.855,1.855,0,0,1,0,3.709Zm-.538-18.547a1.465,1.465,0,0,1-1.317-1.577V5.71l6.937,7.419Z" transform="translate(3.419 1.709)" fill="#b1cf5f"/>
  </g>
</svg>
