<svg xmlns="http://www.w3.org/2000/svg" width="126" height="19.495" viewBox="0 0 126 19.495">
  <g id="Group_1" data-name="Group 1" transform="translate(-19.72 -204.739)">
    <path id="Path_1" data-name="Path 1" d="M170.265,238.955c-2.313,0-3.907,1.926-4.888,4.446-.981-2.52-2.576-4.446-4.889-4.446-3.926,0-7.281,5.52-8.79,10.134h5.4c1.03-2.85,1.238-4.68,3.108-5.415,1.81-.712,3.112,2.565,3.65,5.415H166.9c.537-2.85,1.795-6,3.65-5.415,1.592.5,2.264,2.565,3.294,5.415h5.211C177.274,244.022,174.191,238.955,170.265,238.955Z" transform="translate(-95.871 -24.855)" fill="#fff"/>
    <path id="Path_2" data-name="Path 2" d="M331.54,237.7h-2.5c-4.587.211-10.134,3.427-10.134,6.192s5.547,4.074,10.134,4.285h3.048v-9.927A.55.55,0,0,0,331.54,237.7Zm-2.5,6.318a1.811,1.811,0,0,1-2.4,1.714c-1.283-.454-1.946-1.118-1.946-2.029,0-1.37,1.5-2.919,4.35-3.645Z" transform="translate(-217.335 -23.946)" fill="#fff"/>
    <path id="Path_3" data-name="Path 3" d="M444.744,237.7h-2.516c-4.587.211-10.135,3.427-10.135,6.192s5.547,4.074,10.135,4.285h3.048v-9.944A.533.533,0,0,0,444.744,237.7Zm-2.516,6.342a1.8,1.8,0,0,1-2.381,1.7c-1.3-.454-1.968-1.121-1.968-2.037,0-1.37,1.5-2.919,4.349-3.645Z" transform="translate(-299.557 -23.946)" fill="#fff"/>
    <path id="Path_4" data-name="Path 4" d="M265.274,244.32l-.169-1.41-.125-1.044-.258-2.082a2.027,2.027,0,0,0-.2-.662.3.3,0,0,0-.471-.088,1.839,1.839,0,0,1-1.211.542,1.794,1.794,0,0,1-1.15-.487.324.324,0,0,0-.509.106,2.029,2.029,0,0,0-.167.6l-.1.848-.118,1.222,0,.018-.7,7.2h5.744Z" transform="translate(-174.617 -24.855)" fill="#fff"/>
    <path id="Path_5" data-name="Path 5" d="M294.677,244.927l-.168-1.294-.125-.958-.258-1.912a1.7,1.7,0,0,0-1.2-1.422,2.342,2.342,0,0,0-.63-.088,2.4,2.4,0,0,0-.822.15,1.666,1.666,0,0,0-1.054,1.372l-.1.779-.118,1.122,0,.016-.7,6.614h5.744Z" transform="translate(-195.976 -25.072)" fill="#fff"/>
    <path id="Path_6" data-name="Path 6" d="M283.607,225.048a.6.6,0,0,0,.363-.128,4.469,4.469,0,0,1,5.454,0,.593.593,0,0,0,.361.127h1.591a.327.327,0,0,0,.294-.469c-1.049-2.165-2.884-4.269-4.973-4.269s-3.944,2.127-4.99,4.3a.3.3,0,0,0,.272.434Z" transform="translate(-190.29 -11.311)" fill="#fff"/>
    <path id="Path_7" data-name="Path 7" d="M378.549,225.1v-3.781a.583.583,0,0,0-.2-.44,1.9,1.9,0,0,0-1.229-.526,2.078,2.078,0,0,0-1.453.741.584.584,0,0,0-.165.4v14.081h3.049c4.587-.211,10.135-1.519,10.135-4.285S383.136,225.307,378.549,225.1Zm2.584,7.965a1.892,1.892,0,0,1-2.584-1.754v-3.853c2.85.725,4.349,2.274,4.349,3.645C382.9,231.967,382.3,232.61,381.133,233.061Z" transform="translate(-258.446 -11.339)" fill="#fff"/>
    <path id="Path_8" data-name="Path 8" d="M36.623,204.739c-8.442,0-15.457,11.8-16.9,19.5h4.6a13.016,13.016,0,0,1,24.615,0h4.6C52.08,216.537,45.065,204.739,36.623,204.739Zm2.58,7.113h-.875a.326.326,0,0,1-.2-.07,2.46,2.46,0,0,0-3,0,.329.329,0,0,1-.2.071h-.9a.167.167,0,0,1-.15-.239c.576-1.2,1.59-2.369,2.747-2.369s2.16,1.158,2.737,2.35A.18.18,0,0,1,39.2,211.852Z" transform="translate(0 0)" fill="#fff"/>
  </g>
</svg>
