<svg xmlns="http://www.w3.org/2000/svg" width="156" height="24.137" viewBox="0 0 156 24.137">
  <g id="Group_9" data-name="Group 9" transform="translate(-19.72 -204.739)">
    <path id="Path_1" data-name="Path 1" d="M174.685,238.955c-2.864,0-4.838,2.385-6.052,5.5-1.215-3.12-3.189-5.5-6.053-5.5-4.861,0-9.014,6.835-10.883,12.547h6.682c1.275-3.528,1.533-5.795,3.848-6.7,2.241-.881,3.853,3.176,4.518,6.7h3.774c.665-3.528,2.222-7.43,4.518-6.7,1.971.623,2.8,3.176,4.078,6.7h6.451C183.364,245.229,179.546,238.955,174.685,238.955Z" transform="translate(-87.275 -22.626)" fill="#def4c6"/>
    <path id="Path_2" data-name="Path 2" d="M334.548,237.7h-3.093c-5.679.261-12.547,4.242-12.547,7.667s6.868,5.044,12.547,5.305h3.774V238.384A.681.681,0,0,0,334.548,237.7Zm-3.093,7.822a2.242,2.242,0,0,1-2.976,2.122c-1.588-.562-2.409-1.384-2.409-2.512,0-1.7,1.857-3.614,5.385-4.512Z" transform="translate(-197.847 -21.798)" fill="#def4c6"/>
    <path id="Path_3" data-name="Path 3" d="M447.756,237.7h-3.115c-5.679.261-12.547,4.242-12.547,7.667s6.868,5.044,12.547,5.305h3.774V238.363A.659.659,0,0,0,447.756,237.7Zm-3.115,7.852a2.223,2.223,0,0,1-2.948,2.1c-1.606-.562-2.437-1.387-2.437-2.522,0-1.7,1.857-3.614,5.385-4.512Z" transform="translate(-272.695 -21.798)" fill="#def4c6"/>
    <path id="Path_4" data-name="Path 4" d="M266.506,245.6l-.209-1.745-.154-1.292-.319-2.578a2.511,2.511,0,0,0-.248-.82.37.37,0,0,0-.584-.109,2.277,2.277,0,0,1-1.5.671,2.221,2.221,0,0,1-1.424-.6.4.4,0,0,0-.631.131,2.513,2.513,0,0,0-.206.747l-.121,1.05-.146,1.513,0,.022L260.1,251.5h7.112Z" transform="translate(-158.959 -22.627)" fill="#def4c6"/>
    <path id="Path_5" data-name="Path 5" d="M295.909,246.278l-.208-1.6-.155-1.187-.319-2.367a2.1,2.1,0,0,0-1.489-1.76,2.9,2.9,0,0,0-.779-.109,2.966,2.966,0,0,0-1.017.185,2.063,2.063,0,0,0-1.305,1.7l-.121.964-.146,1.39,0,.02L289.5,251.7h7.112Z" transform="translate(-178.403 -22.823)" fill="#def4c6"/>
    <path id="Path_6" data-name="Path 6" d="M284.067,226.177a.739.739,0,0,0,.449-.159,5.533,5.533,0,0,1,6.753,0,.734.734,0,0,0,.447.158h1.969a.4.4,0,0,0,.364-.581c-1.3-2.681-3.57-5.286-6.157-5.286s-4.884,2.633-6.179,5.329a.374.374,0,0,0,.336.537Z" transform="translate(-173.227 -10.297)" fill="#def4c6"/>
    <path id="Path_7" data-name="Path 7" d="M379.274,226.227v-4.681a.722.722,0,0,0-.249-.545,2.356,2.356,0,0,0-1.522-.652,2.573,2.573,0,0,0-1.8.917.723.723,0,0,0-.2.5V239.2h3.774c5.679-.261,12.547-1.881,12.547-5.3S384.954,226.488,379.274,226.227Zm3.2,9.861a2.342,2.342,0,0,1-3.2-2.172v-4.77c3.528.9,5.385,2.816,5.385,4.512C384.659,234.733,383.915,235.529,382.474,236.088Z" transform="translate(-235.271 -10.323)" fill="#def4c6"/>
    <path id="Path_8" data-name="Path 8" d="M40.648,204.739c-10.452,0-19.137,14.607-20.928,24.137h5.69a16.115,16.115,0,0,1,30.476,0h5.69C59.785,219.346,51.1,204.739,40.648,204.739Zm3.194,8.806H42.758a.4.4,0,0,1-.246-.087,3.046,3.046,0,0,0-3.717,0,.407.407,0,0,1-.247.087h-1.11a.206.206,0,0,1-.185-.3c.713-1.484,1.969-2.934,3.4-2.934s2.675,1.434,3.389,2.91A.223.223,0,0,1,43.841,213.545Z" transform="translate(0 0)" fill="#def4c6"/>
  </g>
</svg>
